<?xml version="1.0" encoding="utf-8"?>
<!DOCTYPE svg PUBLIC "-//W3C//DTD SVG 1.1//EN" "http://www.w3.org/Graphics/SVG/1.1/DTD/svg11.dtd">
<svg version="1.1" xmlns="http://www.w3.org/2000/svg" xmlns:xlink="http://www.w3.org/1999/xlink" x="0px" y="0px" viewBox="0 0 1000 1000" enable-background="new 0 0 1000 1000" xml:space="preserve">
<g><path d="M908.4,908.4H91.7c-45.2,0-81.7-36.5-81.7-81.7V336.6c0-45,36.5-81.6,81.7-81.6H255v-81.7c0-45.2,36.5-81.7,81.6-81.7h326.7c45.2,0,81.8,36.5,81.8,81.7V255h163.3c45.1,0,81.6,36.5,81.6,81.6v490.1C990,871.9,953.5,908.4,908.4,908.4L908.4,908.4z M132.4,336.6c-22.5,0-40.8,18.4-40.8,40.9s18.4,40.8,40.8,40.8s40.8-18.3,40.8-40.8S155,336.6,132.4,336.6L132.4,336.6z M550,336.6h-92c-114.5,21.6-201.1,121.8-201.1,242.6c0,136.4,110.6,247.1,247.1,247.1c136.5,0,247.1-110.7,247.1-247.1C751.1,458.3,664.6,358.2,550,336.6L550,336.6z M494.1,706.1c-68.2,0-123.7-55.5-123.7-123.7c0-68.3,55.4-123.5,123.7-123.5c68.2,0,123.5,55.2,123.5,123.5C617.5,650.7,562.3,706.1,494.1,706.1L494.1,706.1z"/></g>
</svg>