<?xml version="1.0" encoding="UTF-8"?>
<svg width="752pt" height="752pt" version="1.1" viewBox="150 150 452 452" xmlns="http://www.w3.org/2000/svg">
 <g>
  <path d="m535.6 263.76c0-3.7891-1.4219-7.5781-4.2617-10.418l-79.562-85.246c-2.8398-3.3164-7.1055-4.7344-11.367-4.7344h-198.9c-13.734 0-25.102 11.367-25.102 25.102v375.55c0 13.734 11.367 25.102 25.102 25.102h269.47c13.734 0 25.102-11.367 25.102-25.102zm-222.58 213.11h-12.312v16.574c0 3.7891-1.8945 5.6836-5.6836 5.6836h-6.6289c-3.7891 0-5.6836-1.8945-5.6836-5.6836v-60.145c0-3.7891 1.8945-5.6836 5.6836-5.6836h24.152c13.734 0 23.207 9.9453 23.207 24.625-0.003906 14.684-9 24.629-22.734 24.629zm63.934 21.785h-19.891c-3.7891 0-5.6836-1.8945-5.6836-5.6836v-59.672c0-3.7891 1.8945-5.6836 5.6836-5.6836h19.891c22.258 0 36.465 13.262 36.465 35.52s-14.207 35.52-36.465 35.52zm97.082-61.566c0 3.7891-1.8945 5.6836-5.6836 5.6836h-20.836v14.68h16.102c3.7891 0 5.6836 1.8945 5.6836 5.6836v3.7891c0 3.7891-1.8945 5.6836-5.6836 5.6836h-16.102v20.836c0 3.7891-1.8945 5.6836-5.6836 5.6836h-6.6289c-3.7891 0-5.6836-1.8945-5.6836-5.6836v-60.145c0-3.7891 1.8945-5.6836 5.6836-5.6836h32.676c3.7891 0 5.6836 1.8945 5.6836 5.6836v3.7891zm39.781-168.59h-52.094c-13.734 0-25.102-11.367-25.102-25.102l0.003906-55.883c0-1.4219 1.8945-1.8945 2.8398-0.94531l75.773 79.09c0.47266 0.94531 0 2.8398-1.4219 2.8398z"/>
  <path d="m309.7 442.78h-8.9961v19.418h8.5234c6.1562 0 8.9961-4.2617 8.9961-9.9453s-2.8398-9.4727-8.5234-9.4727z"/>
  <path d="m376 442.78h-7.1055v41.203l7.1055-0.003907c11.84 0 19.418-7.1055 19.418-20.836 0-13.734-7.5781-20.363-19.418-20.363z"/>
 </g>
</svg>
