<?xml version="1.0" encoding="UTF-8"?>
<svg width="752pt" height="752pt" version="1.1" viewBox="150 150 452 452" xmlns="http://www.w3.org/2000/svg">
 <g>
  <path d="m535.6 263.76c0-3.7891-1.4219-7.5781-4.2617-10.418l-79.562-85.246c-2.8398-3.3164-7.1055-4.7344-11.367-4.7344h-198.9c-13.734 0-25.102 11.367-25.102 25.102v375.55c0 13.734 11.367 25.102 25.102 25.102h269.47c13.734 0 25.102-11.367 25.102-25.102zm-233 234.9h-19.891c-3.7891 0-5.6836-1.8945-5.6836-5.6836v-59.672c0-3.7891 1.8945-5.6836 5.6836-5.6836h19.891c22.258 0 36.465 13.262 36.465 35.52s-14.207 35.52-36.465 35.52zm104.19-6.6328c2.3672 3.7891 0.94531 6.6289-3.7891 6.6289h-7.1055c-2.8398 0-4.7344-1.4219-6.6289-3.7891l-6.1562-10.891c-2.3672-4.2617-4.2617-8.9961-4.2617-8.9961s-1.8945 4.2617-4.2617 8.9961l-6.1562 10.891c-1.4219 2.8398-3.3164 3.7891-6.6289 3.7891h-7.1055c-4.2617 0-6.1562-2.8398-3.7891-6.6289l17.523-28.887-17.523-29.363c-2.3672-3.7891-0.47266-6.6289 3.7891-6.6289h7.5781c2.8398 0 4.7344 1.4219 6.6289 3.7891l5.6836 10.891c2.3672 4.2617 4.2617 8.9961 4.2617 8.9961s1.8945-4.7344 4.2617-8.9961l5.6836-10.891c1.4219-2.8398 3.3164-3.7891 6.6289-3.7891h7.5781c4.2617 0 6.1562 2.8398 3.7891 6.6289l-17.996 29.363zm61.566-54.934c0 3.7891-1.8945 5.6836-5.6836 5.6836h-20.363v14.68h16.102c3.7891 0 5.6836 1.8945 5.6836 5.6836v3.7891c0 3.7891-1.8945 5.6836-5.6836 5.6836h-16.102v20.836c0 3.7891-1.8945 5.6836-5.6836 5.6836h-6.6289c-3.7891 0-5.6836-1.8945-5.6836-5.6836v-60.145c0-3.7891 1.8945-5.6836 5.6836-5.6836h32.676c3.7891 0 5.6836 1.8945 5.6836 5.6836zm45.461-168.59h-52.094c-13.734 0-25.102-11.367-25.102-25.102l0.003906-55.883c0-1.4219 1.8945-1.8945 2.8398-0.94531l75.773 79.09c0.47266 0.94531 0 2.8398-1.4219 2.8398z"/>
  <path d="m301.65 442.78h-7.1055v41.203h7.1055c11.84 0 19.418-7.1055 19.418-20.836 0-13.738-7.5781-20.367-19.418-20.367z"/>
 </g>
</svg>